<svg width="163" height="45" viewBox="0 0 163 45" fill="none" xmlns="http://www.w3.org/2000/svg">
<circle cx="14" cy="28.6" r="11.2" stroke="black" stroke-width="5.6"/>
<path d="M1.5 8.29999L14 3.39999L26 8.29999" stroke="black" stroke-width="5.6"/>
<path d="M58.7323 25.56C60.3897 25.56 61.7026 26.0523 62.6708 27.0369C63.6554 28.0051 64.1477 29.4656 64.1477 31.4185V39H60.3077V32.0092C60.3077 30.959 60.0862 30.1795 59.6431 29.6708C59.2164 29.1456 58.601 28.8831 57.7969 28.8831C56.8944 28.8831 56.1805 29.1785 55.6554 29.7692C55.1303 30.3436 54.8677 31.2051 54.8677 32.3538V39H51.0277V32.0092C51.0277 29.9251 50.1908 28.8831 48.5169 28.8831C47.6308 28.8831 46.9251 29.1785 46.4 29.7692C45.8749 30.3436 45.6123 31.2051 45.6123 32.3538V39H41.7723V25.7569H45.44V27.2831C45.9323 26.7251 46.5313 26.2985 47.2369 26.0031C47.959 25.7077 48.7467 25.56 49.6 25.56C50.5354 25.56 51.3805 25.7487 52.1354 26.1262C52.8903 26.4872 53.4974 27.0205 53.9569 27.7262C54.4985 27.0369 55.1795 26.5036 56 26.1262C56.8369 25.7487 57.7477 25.56 58.7323 25.56ZM72.9312 25.56C74.9824 25.56 76.5578 26.0523 77.6573 27.0369C78.7568 28.0051 79.3065 29.4738 79.3065 31.4431V39H75.7127V37.3508C74.9906 38.5815 73.645 39.1969 71.6758 39.1969C70.6583 39.1969 69.7722 39.0246 69.0173 38.68C68.2788 38.3354 67.7127 37.8595 67.3188 37.2523C66.925 36.6451 66.7281 35.9559 66.7281 35.1846C66.7281 33.9538 67.1876 32.9856 68.1065 32.28C69.0419 31.5744 70.4778 31.2215 72.4142 31.2215H75.4665C75.4665 30.3846 75.2122 29.7446 74.7035 29.3015C74.1947 28.8421 73.4317 28.6123 72.4142 28.6123C71.7086 28.6123 71.0112 28.7272 70.3219 28.9569C69.6491 29.1703 69.0747 29.4656 68.5988 29.8431L67.2204 27.16C67.9424 26.6513 68.804 26.2574 69.805 25.9785C70.8224 25.6995 71.8645 25.56 72.9312 25.56ZM72.6358 36.6123C73.2922 36.6123 73.8747 36.4646 74.3835 36.1692C74.8922 35.8574 75.2532 35.4062 75.4665 34.8154V33.4615H72.8327C71.2573 33.4615 70.4696 33.9785 70.4696 35.0123C70.4696 35.5046 70.6583 35.8985 71.0358 36.1938C71.4296 36.4728 71.9629 36.6123 72.6358 36.6123ZM90.1665 25.8308C91.4301 25.8308 92.5624 26.1097 93.5635 26.6677C94.5645 27.2256 95.344 28.0051 95.9019 29.0062C96.4763 30.0072 96.7635 31.1641 96.7635 32.4769C96.7635 33.7897 96.4763 34.9549 95.9019 35.9723C95.344 36.9733 94.5645 37.7528 93.5635 38.3108C92.5624 38.8687 91.4301 39.1477 90.1665 39.1477C89.2312 39.1477 88.3696 38.9672 87.5819 38.6062C86.8106 38.2451 86.1542 37.72 85.6127 37.0308V43.7754H83.2496V25.9538H85.5142V28.0215C86.0394 27.2995 86.704 26.7579 87.5081 26.3969C88.3122 26.0195 89.1983 25.8308 90.1665 25.8308ZM89.9696 37.08C90.8065 37.08 91.5532 36.8913 92.2096 36.5138C92.8824 36.12 93.4076 35.5785 93.785 34.8892C94.1788 34.1836 94.3758 33.3795 94.3758 32.4769C94.3758 31.5744 94.1788 30.7785 93.785 30.0892C93.4076 29.3836 92.8824 28.8421 92.2096 28.4646C91.5532 28.0872 90.8065 27.8985 89.9696 27.8985C89.1491 27.8985 88.4024 28.0954 87.7296 28.4892C87.0732 28.8667 86.5481 29.4 86.1542 30.0892C85.7768 30.7785 85.5881 31.5744 85.5881 32.4769C85.5881 33.3795 85.7768 34.1836 86.1542 34.8892C86.5317 35.5785 87.0568 36.12 87.7296 36.5138C88.4024 36.8913 89.1491 37.08 89.9696 37.08ZM100.028 20.7354H102.392V39H100.028V20.7354ZM111.654 25.8308C113.459 25.8308 114.838 26.2738 115.79 27.16C116.758 28.0462 117.242 29.3672 117.242 31.1231V39H115.002V37.2769C114.608 37.8841 114.042 38.3518 113.303 38.68C112.581 38.9918 111.72 39.1477 110.719 39.1477C109.258 39.1477 108.085 38.7949 107.199 38.0892C106.329 37.3836 105.894 36.4564 105.894 35.3077C105.894 34.159 106.313 33.24 107.15 32.5508C107.987 31.8451 109.316 31.4923 111.137 31.4923H114.879V31.0246C114.879 30.0072 114.583 29.2277 113.993 28.6862C113.402 28.1446 112.532 27.8738 111.383 27.8738C110.612 27.8738 109.857 28.0051 109.119 28.2677C108.38 28.5138 107.757 28.8503 107.248 29.2769L106.263 27.5046C106.936 26.9631 107.74 26.5528 108.676 26.2738C109.611 25.9785 110.604 25.8308 111.654 25.8308ZM111.113 37.3262C112.015 37.3262 112.795 37.1292 113.451 36.7354C114.108 36.3251 114.583 35.7508 114.879 35.0123V33.1908H111.236C109.234 33.1908 108.233 33.8636 108.233 35.2092C108.233 35.8656 108.487 36.3826 108.996 36.76C109.504 37.1374 110.21 37.3262 111.113 37.3262ZM127.373 39.1477C126.044 39.1477 124.854 38.8605 123.804 38.2862C122.77 37.7118 121.958 36.9241 121.367 35.9231C120.776 34.9056 120.481 33.7569 120.481 32.4769C120.481 31.1969 120.776 30.0564 121.367 29.0554C121.958 28.0379 122.77 27.2503 123.804 26.6923C124.854 26.1179 126.044 25.8308 127.373 25.8308C128.555 25.8308 129.605 26.0687 130.524 26.5446C131.459 27.0205 132.181 27.7097 132.69 28.6123L130.893 29.7692C130.483 29.1456 129.974 28.6779 129.367 28.3662C128.76 28.0544 128.087 27.8985 127.349 27.8985C126.495 27.8985 125.724 28.0872 125.035 28.4646C124.362 28.8421 123.829 29.3836 123.435 30.0892C123.057 30.7785 122.869 31.5744 122.869 32.4769C122.869 33.3959 123.057 34.2082 123.435 34.9138C123.829 35.6031 124.362 36.1364 125.035 36.5138C125.724 36.8913 126.495 37.08 127.349 37.08C128.087 37.08 128.76 36.9241 129.367 36.6123C129.974 36.3005 130.483 35.8328 130.893 35.2092L132.69 36.3415C132.181 37.2441 131.459 37.9415 130.524 38.4338C129.605 38.9097 128.555 39.1477 127.373 39.1477ZM147.348 32.5508C147.348 32.7313 147.332 32.9692 147.299 33.2646H136.714C136.862 34.4133 137.362 35.3405 138.216 36.0462C139.086 36.7354 140.16 37.08 141.44 37.08C142.999 37.08 144.255 36.5549 145.207 35.5046L146.511 37.0308C145.92 37.72 145.182 38.2451 144.296 38.6062C143.426 38.9672 142.45 39.1477 141.367 39.1477C139.988 39.1477 138.766 38.8687 137.699 38.3108C136.632 37.7364 135.803 36.9405 135.213 35.9231C134.638 34.9056 134.351 33.7569 134.351 32.4769C134.351 31.2133 134.63 30.0728 135.188 29.0554C135.762 28.0379 136.542 27.2503 137.527 26.6923C138.528 26.1179 139.652 25.8308 140.899 25.8308C142.146 25.8308 143.254 26.1179 144.222 26.6923C145.207 27.2503 145.97 28.0379 146.511 29.0554C147.069 30.0728 147.348 31.2379 147.348 32.5508ZM140.899 27.8246C139.767 27.8246 138.815 28.1692 138.043 28.8585C137.289 29.5477 136.846 30.4503 136.714 31.5662H145.083C144.952 30.4667 144.501 29.5723 143.73 28.8831C142.975 28.1774 142.031 27.8246 140.899 27.8246Z" fill="#060606"/>
<line x1="42" y1="13.5" x2="77" y2="13.5" stroke="black" stroke-width="3"/>
<path d="M14 22L19.0711 29.1716L14 34.2426L8.92897 29.1716L14 22Z" fill="#FFF507"/>
</svg>
